<svg xmlns="http://www.w3.org/2000/svg" viewBox="0 0 240 240" role="img" aria-labelledby="title desc">
  <title id="title">Lore Kobold</title>
  <desc id="desc">A simple black line kobold in a dinosaur hood, holding a question scroll.</desc>
  <rect width="240" height="240" rx="32" fill="#d8d2c4"/>
  <g fill="none" stroke="#17130f" stroke-width="6" stroke-linecap="round" stroke-linejoin="round">
    <path d="M80 60c13-24 51-18 65 1 18-9 40-3 48 12-20 1-30 15-31 31 19 10 34 34 21 58-15 27-56 39-93 21-29-14-43-43-36-72 3-14 12-26 26-51z" fill="#f5f1e5"/>
    <path d="M85 62c3 19-8 27-20 36"/>
    <path d="M178 75l29-13-12 32"/>
    <path d="M80 121c-23-3-35 7-49 27 16 7 33 6 49-1" fill="#f5f1e5"/>
    <path d="M126 85c-8 16-7 37 4 48"/>
    <path d="M88 105c18-13 43-5 48 13"/>
    <path d="M91 124c9 12 30 11 40-2"/>
    <path d="M97 112c2 3 2 6-1 8"/>
    <path d="M120 111c2 4 1 7-2 9"/>
    <path d="M100 136c9 5 17 5 25 0"/>
    <path d="M70 163c-17 10-22 26-14 42 14 19 44 18 63 1 21 11 50 6 62-12 12-18 4-39-16-50"/>
    <path d="M60 204c-14 11-32 8-40-3 14-4 26-10 37-23"/>
    <path d="M177 184c27 13 50 5 51-27 1-24-15-37-34-31"/>
    <path d="M224 156c-4 6-10 9-17 9"/>
    <path d="M92 181c18 9 41 9 61-1"/>
    <path d="M78 180h82v30H78z" fill="#f5f1e5"/>
    <path d="M84 190h45"/>
    <path d="M84 201h58"/>
    <path d="M62 80l13-11"/>
    <path d="M153 58l13 11"/>
    <path d="M148 151c8-2 14-5 19-10"/>
  </g>
  <g fill="#17130f">
    <circle cx="106" cy="115" r="4"/>
    <circle cx="128" cy="114" r="4"/>
    <path d="M100 80c11-12 28-14 41-5-3 23-10 36-30 40-4-12-9-21-11-35z" opacity=".88"/>
  </g>
</svg>
